<svg width="64" height="64" viewBox="0 0 64 64" fill="none" xmlns="http://www.w3.org/2000/svg" role="img" aria-label="Genie Workbench">
  <defs>
    <linearGradient id="gw" x1="0" y1="0" x2="64" y2="64" gradientUnits="userSpaceOnUse">
      <stop stop-color="#2272b4"/>
      <stop offset="1" stop-color="#4299e0"/>
    </linearGradient>
  </defs>
  <rect x="2" y="2" width="60" height="60" rx="14" fill="url(#gw)"/>
  <!-- four-point "genie spark" -->
  <path d="M32 13c1.2 9.4 4.6 12.8 14 14-9.4 1.2-12.8 4.6-14 14-1.2-9.4-4.6-12.8-14-14 9.4-1.2 12.8-4.6 14-14Z" fill="#fff"/>
  <!-- small accent spark -->
  <path d="M46 38c.5 3.9 1.9 5.3 5.8 5.8-3.9.5-5.3 1.9-5.8 5.8-.5-3.9-1.9-5.3-5.8-5.8 3.9-.5 5.3-1.9 5.8-5.8Z" fill="#fff" fill-opacity="0.75"/>
</svg>
